<?xml version="1.0" encoding="utf-8"?>
<!-- Generator: Adobe Illustrator 22.1.0, SVG Export Plug-In . SVG Version: 6.00 Build 0)  -->
<svg version="1.1" id="레이어_1" xmlns="http://www.w3.org/2000/svg" xmlns:xlink="http://www.w3.org/1999/xlink" x="0px"
	 y="0px" viewBox="0 0 45.4 45.4" style="enable-background:new 0 0 45.4 45.4;" xml:space="preserve">
<style type="text/css">
	.st0{fill:url(#SVGID_1_);}
	.st1{fill:#FFFFFF;}
	.st2{fill:url(#SVGID_2_);}
	.st3{fill:#F39800;}
	.st4{fill:#D8372D;}
	.st5{fill:url(#SVGID_3_);}
	.st6{fill:#E0633A;}
	.st7{fill:#DF6730;}
	.st8{fill:#E89032;}
	.st9{fill:#F2C61D;}
	.st10{clip-path:url(#SVGID_5_);fill:url(#SVGID_6_);}
</style>
<linearGradient id="SVGID_1_" gradientUnits="userSpaceOnUse" x1="36.0021" y1="46.6878" x2="9.3522" y2="0.5287">
	<stop  offset="0" style="stop-color:#FFF21F"/>
	<stop  offset="3.125065e-02" style="stop-color:#FFE400"/>
	<stop  offset="6.843700e-02" style="stop-color:#FED700"/>
	<stop  offset="0.1067" style="stop-color:#FDCF00"/>
	<stop  offset="0.1476" style="stop-color:#FCCD00"/>
	<stop  offset="0.3814" style="stop-color:#F1942E"/>
	<stop  offset="0.5974" style="stop-color:#EA6A2D"/>
	<stop  offset="0.7594" style="stop-color:#EC6538"/>
	<stop  offset="0.9538" style="stop-color:#E5352B"/>
</linearGradient>
<path class="st0" d="M36.4,45.2H8.9c-4.3,0-7.9-3.5-7.9-7.9V9.9C1.1,5.5,4.6,2,8.9,2h27.5c4.3,0,7.9,3.5,7.9,7.9v27.5
	C44.3,41.7,40.8,45.2,36.4,45.2z"/>
<path class="st1" d="M35.5,42.5H10.1c-3,0-5.5-2.5-5.5-5.5V11.7c0-3,2.5-5.5,5.5-5.5h25.3c3,0,5.5,2.5,5.5,5.5V37
	C40.9,40.1,38.5,42.5,35.5,42.5z"/>
<linearGradient id="SVGID_2_" gradientUnits="userSpaceOnUse" x1="-371.1539" y1="-460.6196" x2="-453.7417" y2="-603.6658">
	<stop  offset="0" style="stop-color:#FFF21F"/>
	<stop  offset="3.125065e-02" style="stop-color:#FFE400"/>
	<stop  offset="6.843700e-02" style="stop-color:#FED700"/>
	<stop  offset="0.1067" style="stop-color:#FDCF00"/>
	<stop  offset="0.1476" style="stop-color:#FCCD00"/>
	<stop  offset="0.3814" style="stop-color:#F1942E"/>
	<stop  offset="0.5974" style="stop-color:#EA6A2D"/>
	<stop  offset="0.7594" style="stop-color:#EA652D"/>
	<stop  offset="0.9538" style="stop-color:#E5352B"/>
</linearGradient>
<path class="st2" d="M-372.9-464h-79c-15.8,0-28.6-12.8-28.6-28.6v-79c0-15.8,12.8-28.6,28.6-28.6h79c15.8,0,28.6,12.8,28.6,28.6v79
	C-344.3-476.8-357.1-464-372.9-464z"/>
<path class="st3" d="M-679.5-326.3H-765c-3.1,0-5.6-2.5-5.6-5.6l0,0c0-3.1,2.5-5.6,5.6-5.6h85.5c3.1,0,5.6,2.5,5.6,5.6l0,0
	C-673.9-328.8-676.4-326.3-679.5-326.3z"/>
<path class="st4" d="M8.8,6.4V1.9c0-1,0.8-1.8,1.8-1.8h0c1,0,1.8,0.8,1.8,1.8v4.5c0,1-0.8,1.8-1.8,1.8h0C9.6,8.2,8.8,7.4,8.8,6.4z"
	/>
<linearGradient id="SVGID_3_" gradientUnits="userSpaceOnUse" x1="-732.5834" y1="-288.5177" x2="-796.2501" y2="-288.5177">
	<stop  offset="0" style="stop-color:#FFF21F"/>
	<stop  offset="3.125065e-02" style="stop-color:#FFE400"/>
	<stop  offset="6.843700e-02" style="stop-color:#FED700"/>
	<stop  offset="0.1067" style="stop-color:#FDCF00"/>
	<stop  offset="0.1476" style="stop-color:#FCCD00"/>
	<stop  offset="0.3814" style="stop-color:#F1942E"/>
	<stop  offset="0.5974" style="stop-color:#EA6A2D"/>
	<stop  offset="0.7594" style="stop-color:#EA652D"/>
	<stop  offset="0.9538" style="stop-color:#E5352B"/>
</linearGradient>
<path class="st5" d="M-738.1-283h-52.5c-3.1,0-5.6-2.5-5.6-5.6v0c0-3.1,2.5-5.6,5.6-5.6h52.5c3.1,0,5.6,2.5,5.6,5.6v0
	C-732.6-285.4-735.1-283-738.1-283z"/>
<path class="st6" d="M15.1,6.4V1.9c0-1,0.8-1.8,1.8-1.8h0c1,0,1.8,0.8,1.8,1.8v4.5c0,1-0.8,1.8-1.8,1.8h0
	C15.9,8.2,15.1,7.4,15.1,6.4z"/>
<path class="st7" d="M21.1,6.4V1.9c0-1,0.8-1.8,1.8-1.8h0c1,0,1.8,0.8,1.8,1.8v4.5c0,1-0.8,1.8-1.8,1.8h0
	C21.9,8.2,21.1,7.4,21.1,6.4z"/>
<path class="st8" d="M27.1,6.4V1.9c0-1,0.8-1.8,1.8-1.8h0c1,0,1.8,0.8,1.8,1.8v4.5c0,1-0.8,1.8-1.8,1.8h0
	C27.8,8.2,27.1,7.4,27.1,6.4z"/>
<path class="st9" d="M33,6.4V1.9c0-1,0.8-1.8,1.8-1.8h0c1,0,1.8,0.8,1.8,1.8v4.5c0,1-0.8,1.8-1.8,1.8h0C33.8,8.2,33,7.4,33,6.4z"/>
<path class="st9" d="M33.2,36.1H12.1c-0.4,0-0.7-0.3-0.7-0.7v0c0-0.4,0.3-0.7,0.7-0.7h21.1c0.4,0,0.7,0.3,0.7,0.7v0
	C33.9,35.8,33.6,36.1,33.2,36.1z"/>
<g>
	<path class="st9" d="M-800.7-262.7h-8.2c-1.2,0-2.3-1-2.3-2.3v-2c0-1.2,1-2.3,2.3-2.3h8.2c1.2,0,2.3,1,2.3,2.3v2
		C-798.5-263.7-799.5-262.7-800.7-262.7z"/>
	<path class="st9" d="M-784.8-262.7h-8.2c-1.2,0-2.3-1-2.3-2.3v-2c0-1.2,1-2.3,2.3-2.3h8.2c1.2,0,2.3,1,2.3,2.3v2
		C-782.6-263.7-783.6-262.7-784.8-262.7z"/>
	<path class="st9" d="M-769.5-262.7h-8.2c-1.2,0-2.3-1-2.3-2.3v-2c0-1.2,1-2.3,2.3-2.3h8.2c1.2,0,2.3,1,2.3,2.3v2
		C-767.2-263.7-768.2-262.7-769.5-262.7z"/>
	<path class="st9" d="M-754.5-262.7h-8.2c-1.2,0-2.3-1-2.3-2.3v-2c0-1.2,1-2.3,2.3-2.3h8.2c1.2,0,2.3,1,2.3,2.3v2
		C-752.3-263.7-753.3-262.7-754.5-262.7z"/>
	<path class="st9" d="M-739.2-262.7h-8.2c-1.2,0-2.3-1-2.3-2.3v-2c0-1.2,1-2.3,2.3-2.3h8.2c1.2,0,2.3,1,2.3,2.3v2
		C-737-263.7-738-262.7-739.2-262.7z"/>
	<path class="st9" d="M-723.3-262.7h-8.2c-1.2,0-2.3-1-2.3-2.3v-2c0-1.2,1-2.3,2.3-2.3h8.2c1.2,0,2.3,1,2.3,2.3v2
		C-721.1-263.7-722.1-262.7-723.3-262.7z"/>
	<path class="st9" d="M-708-262.7h-8.2c-1.2,0-2.3-1-2.3-2.3v-2c0-1.2,1-2.3,2.3-2.3h8.2c1.2,0,2.3,1,2.3,2.3v2
		C-705.8-263.7-706.8-262.7-708-262.7z"/>
	<path class="st9" d="M-800.9-250.1h-8.2c-1.2,0-2.3-1-2.3-2.3v-2c0-1.2,1-2.3,2.3-2.3h8.2c1.2,0,2.3,1,2.3,2.3v2
		C-798.7-251.1-799.7-250.1-800.9-250.1z"/>
	<path class="st9" d="M-785-250.1h-8.2c-1.2,0-2.3-1-2.3-2.3v-2c0-1.2,1-2.3,2.3-2.3h8.2c1.2,0,2.3,1,2.3,2.3v2
		C-782.7-251.1-783.7-250.1-785-250.1z"/>
	<path class="st9" d="M-769.7-250.1h-8.2c-1.2,0-2.3-1-2.3-2.3v-2c0-1.2,1-2.3,2.3-2.3h8.2c1.2,0,2.3,1,2.3,2.3v2
		C-767.4-251.1-768.4-250.1-769.7-250.1z"/>
	<path class="st9" d="M-754.7-250.1h-8.2c-1.2,0-2.3-1-2.3-2.3v-2c0-1.2,1-2.3,2.3-2.3h8.2c1.2,0,2.3,1,2.3,2.3v2
		C-752.5-251.1-753.5-250.1-754.7-250.1z"/>
	<path class="st9" d="M-739.4-250.1h-8.2c-1.2,0-2.3-1-2.3-2.3v-2c0-1.2,1-2.3,2.3-2.3h8.2c1.2,0,2.3,1,2.3,2.3v2
		C-737.2-251.1-738.2-250.1-739.4-250.1z"/>
	<path class="st9" d="M-723.5-250.1h-8.2c-1.2,0-2.3-1-2.3-2.3v-2c0-1.2,1-2.3,2.3-2.3h8.2c1.2,0,2.3,1,2.3,2.3v2
		C-721.3-251.1-722.3-250.1-723.5-250.1z"/>
	<path class="st9" d="M-708.2-250.1h-8.2c-1.2,0-2.3-1-2.3-2.3v-2c0-1.2,1-2.3,2.3-2.3h8.2c1.2,0,2.3,1,2.3,2.3v2
		C-705.9-251.1-706.9-250.1-708.2-250.1z"/>
	<g>
		<path class="st9" d="M-801.1-237h-8.2c-1.2,0-2.3-1-2.3-2.3v-2c0-1.2,1-2.2,2.3-2.2h8.2c1.2,0,2.2,1,2.2,2.2v2
			C-798.8-238-799.8-237-801.1-237z"/>
		<path class="st9" d="M-785.2-237h-8.2c-1.2,0-2.3-1-2.3-2.3v-2c0-1.2,1-2.2,2.3-2.2h8.2c1.2,0,2.3,1,2.3,2.2v2
			C-782.9-238-783.9-237-785.2-237z"/>
		<path class="st9" d="M-769.8-237h-8.2c-1.2,0-2.3-1-2.3-2.3v-2c0-1.2,1-2.2,2.3-2.2h8.2c1.2,0,2.3,1,2.3,2.2v2
			C-767.6-238-768.6-237-769.8-237z"/>
		<path class="st9" d="M-754.9-237h-8.2c-1.2,0-2.2-1-2.2-2.3v-2c0-1.2,1-2.2,2.2-2.2h8.2c1.2,0,2.3,1,2.3,2.2v2
			C-752.6-238-753.6-237-754.9-237z"/>
		<path class="st9" d="M-739.6-237h-8.2c-1.2,0-2.3-1-2.3-2.3v-2c0-1.2,1-2.2,2.3-2.2h8.2c1.2,0,2.3,1,2.3,2.2v2
			C-737.3-238-738.3-237-739.6-237z"/>
		<path class="st9" d="M-723.7-237h-8.2c-1.2,0-2.3-1-2.3-2.3v-2c0-1.2,1-2.2,2.3-2.2h8.2c1.2,0,2.3,1,2.3,2.2v2
			C-721.4-238-722.4-237-723.7-237z"/>
		<path class="st9" d="M-708.3-237h-8.2c-1.2,0-2.3-1-2.3-2.3v-2c0-1.2,1-2.2,2.3-2.2h8.2c1.2,0,2.3,1,2.3,2.2v2
			C-706.1-238-707.1-237-708.3-237z"/>
	</g>
	<g>
		<path class="st9" d="M-800.9-225.1h-8.2c-1.2,0-2.3-1-2.3-2.3v-2c0-1.2,1-2.3,2.3-2.3h8.2c1.2,0,2.3,1,2.3,2.3v2
			C-798.7-226.1-799.7-225.1-800.9-225.1z"/>
		<path class="st9" d="M-785-225.1h-8.2c-1.2,0-2.3-1-2.3-2.3v-2c0-1.2,1-2.3,2.3-2.3h8.2c1.2,0,2.3,1,2.3,2.3v2
			C-782.7-226.1-783.7-225.1-785-225.1z"/>
		<path class="st9" d="M-769.7-225.1h-8.2c-1.2,0-2.3-1-2.3-2.3v-2c0-1.2,1-2.3,2.3-2.3h8.2c1.2,0,2.3,1,2.3,2.3v2
			C-767.4-226.1-768.4-225.1-769.7-225.1z"/>
		<path class="st9" d="M-754.7-225.1h-8.2c-1.2,0-2.3-1-2.3-2.3v-2c0-1.2,1-2.3,2.3-2.3h8.2c1.2,0,2.3,1,2.3,2.3v2
			C-752.5-226.1-753.5-225.1-754.7-225.1z"/>
		<path class="st9" d="M-739.4-225.1h-8.2c-1.2,0-2.3-1-2.3-2.3v-2c0-1.2,1-2.3,2.3-2.3h8.2c1.2,0,2.3,1,2.3,2.3v2
			C-737.2-226.1-738.2-225.1-739.4-225.1z"/>
		<path class="st9" d="M-723.5-225.1h-8.2c-1.2,0-2.3-1-2.3-2.3v-2c0-1.2,1-2.3,2.3-2.3h8.2c1.2,0,2.3,1,2.3,2.3v2
			C-721.3-226.1-722.3-225.1-723.5-225.1z"/>
		<path class="st9" d="M-708.2-225.1h-8.2c-1.2,0-2.3-1-2.3-2.3v-2c0-1.2,1-2.3,2.3-2.3h8.2c1.2,0,2.3,1,2.3,2.3v2
			C-705.9-226.1-706.9-225.1-708.2-225.1z"/>
	</g>
	<g>
		<path class="st9" d="M-801.1-213.1h-8.2c-1.2,0-2.3-1-2.3-2.3v-2c0-1.2,1-2.3,2.3-2.3h8.2c1.2,0,2.2,1,2.2,2.3v2
			C-798.8-214.1-799.8-213.1-801.1-213.1z"/>
		<path class="st9" d="M-785.2-213.1h-8.2c-1.2,0-2.3-1-2.3-2.3v-2c0-1.2,1-2.3,2.3-2.3h8.2c1.2,0,2.3,1,2.3,2.3v2
			C-782.9-214.1-783.9-213.1-785.2-213.1z"/>
		<path class="st9" d="M-769.8-213.1h-8.2c-1.2,0-2.3-1-2.3-2.3v-2c0-1.2,1-2.3,2.3-2.3h8.2c1.2,0,2.3,1,2.3,2.3v2
			C-767.6-214.1-768.6-213.1-769.8-213.1z"/>
		<path class="st9" d="M-754.9-213.1h-8.2c-1.2,0-2.2-1-2.2-2.3v-2c0-1.2,1-2.3,2.2-2.3h8.2c1.2,0,2.3,1,2.3,2.3v2
			C-752.6-214.1-753.6-213.1-754.9-213.1z"/>
		<path class="st9" d="M-739.6-213.1h-8.2c-1.2,0-2.3-1-2.3-2.3v-2c0-1.2,1-2.3,2.3-2.3h8.2c1.2,0,2.3,1,2.3,2.3v2
			C-737.3-214.1-738.3-213.1-739.6-213.1z"/>
		<path class="st9" d="M-723.7-213.1h-8.2c-1.2,0-2.3-1-2.3-2.3v-2c0-1.2,1-2.3,2.3-2.3h8.2c1.2,0,2.3,1,2.3,2.3v2
			C-721.4-214.1-722.4-213.1-723.7-213.1z"/>
		<path class="st9" d="M-708.3-213.1h-8.2c-1.2,0-2.3-1-2.3-2.3v-2c0-1.2,1-2.3,2.3-2.3h8.2c1.2,0,2.3,1,2.3,2.3v2
			C-706.1-214.1-707.1-213.1-708.3-213.1z"/>
	</g>
</g>
<g>
	<defs>
		<g id="SVGID_4_">
			<path id="SVGID_5_" d="M13.4,31.2l4.7-6.3c0.2-0.3,0.4-0.7,0.6-1c0.1-0.3,0.2-0.7,0.2-1v0c0-0.5-0.1-0.8-0.4-1.1
				c-0.3-0.3-0.7-0.4-1.2-0.4c-0.5,0-0.9,0.2-1.2,0.5c-0.3,0.3-0.5,0.7-0.5,1.3v0h-2.3v0c0.1-0.8,0.3-1.5,0.7-2.1
				c0.4-0.6,0.8-1,1.4-1.3c0.6-0.3,1.2-0.5,2-0.5c0.8,0,1.5,0.1,2.1,0.4c0.6,0.3,1,0.7,1.4,1.2c0.3,0.5,0.5,1.2,0.5,1.9v0
				c0,0.6-0.1,1.1-0.3,1.7c-0.2,0.6-0.5,1.1-0.9,1.6L16.4,31h4.9v2.2h-7.9V31.2z M24.6,32.3c-0.7-0.7-1-1.6-1-2.9v-6.2
				c0-1.2,0.3-2.2,1-2.9s1.7-1,3-1c1.3,0,2.3,0.3,3,1c0.7,0.7,1,1.6,1,2.9v6.2c0,1.2-0.3,2.2-1,2.9c-0.7,0.7-1.7,1-3,1
				C26.3,33.3,25.3,33,24.6,32.3z M28.9,30.6c0.3-0.4,0.4-0.9,0.4-1.5v-5.6c0-0.7-0.1-1.2-0.4-1.5c-0.3-0.4-0.7-0.5-1.3-0.5
				s-1,0.2-1.3,0.5s-0.4,0.9-0.4,1.5v5.6c0,0.7,0.1,1.2,0.4,1.5c0.3,0.4,0.7,0.5,1.3,0.5S28.6,31,28.9,30.6z"/>
		</g>
	</defs>
	<clipPath id="SVGID_5_">
		<use xlink:href="#SVGID_4_"  style="overflow:visible;"/>
	</clipPath>
	<linearGradient id="SVGID_6_" gradientUnits="userSpaceOnUse" x1="27.9488" y1="38.0287" x2="15.9114" y2="17.1793">
		<stop  offset="0" style="stop-color:#FFF21F"/>
		<stop  offset="3.125065e-02" style="stop-color:#FFE400"/>
		<stop  offset="6.843700e-02" style="stop-color:#FED700"/>
		<stop  offset="0.1067" style="stop-color:#FDCF00"/>
		<stop  offset="0.1476" style="stop-color:#FCCD00"/>
		<stop  offset="0.3814" style="stop-color:#F1942E"/>
		<stop  offset="0.5974" style="stop-color:#EA6A2D"/>
		<stop  offset="0.7594" style="stop-color:#EC6538"/>
		<stop  offset="0.9538" style="stop-color:#E5352B"/>
	</linearGradient>
	<text x="14" y="30" fill="url(#SVGID_6_)" font-weight="bold">20</text>
</g>
</svg>
